<?xml version="1.0" encoding="utf-8"?>
<!-- Generator: Adobe Illustrator 18.0.0, SVG Export Plug-In . SVG Version: 6.00 Build 0)  -->
<!DOCTYPE svg PUBLIC "-//W3C//DTD SVG 1.1//EN" "http://www.w3.org/Graphics/SVG/1.1/DTD/svg11.dtd">
<svg version="1.1" id="Layer_1" xmlns="http://www.w3.org/2000/svg" xmlns:xlink="http://www.w3.org/1999/xlink" x="0px" y="0px"
	 viewBox="-10 -10 84 84" enable-background="new 0 0 64 64" xml:space="preserve">
<path stroke="black" stroke-width="2" d="M32,0C14.4,0,0,14.4,0,32c0,17.6,14.4,32,32,32v-4C16.6,60,4,47.4,4,32S16.6,4,32,4s28,12.6,28,28c0,4.2-0.9,8.3-2.8,12.2
	c-1.2,2.8-4.1,4.3-7,3.8c-3.5-0.7-5.8-4.1-5.1-7.6l4-21L45,18.6l-0.7,3.5c-0.5-0.8-1.1-1.5-1.8-2.2c-2.6-2.6-6-4-9.8-4
	c-4.3,0-8.6,1.8-11.8,5c-3,3-4.8,6.9-5,10.9c-0.2,4.1,1.2,7.9,3.9,10.7c2.6,2.6,6,4,9.8,4c4,0,8-1.6,11.1-4.4
	c0.2,4.7,3.6,8.9,8.5,9.8c4.8,0.9,9.5-1.6,11.4-6c2.1-4.4,3.2-9,3.2-13.9C64,14.4,49.6,0,32,0z M29.8,42.5c-2.7,0-5.2-1-7-2.8
	c-2-2-2.9-4.7-2.8-7.6c0.2-3,1.5-6,3.8-8.3c2.4-2.4,5.7-3.8,8.9-3.8c2.7,0,5.2,1,7,2.8c4.1,4.1,3.6,11.2-1.1,15.9
	C36.3,41.1,33,42.5,29.8,42.5z"/>
</svg>
