<?xml version="1.0" standalone="no"?>
<!DOCTYPE svg PUBLIC "-//W3C//DTD SVG 20010904//EN"
 "http://www.w3.org/TR/2001/REC-SVG-20010904/DTD/svg10.dtd">
<svg version="1.0" xmlns="http://www.w3.org/2000/svg"
 width="4096pt" height="4096pt" viewBox="550 300 3000 3000"
 preserveAspectRatio="xMidYMid meet">
<metadata>
Created by potrace 1.15, written by Peter Selinger 2001-2017
</metadata>
<g transform="translate(0.000000,4096.000000) scale(0.100000,-0.100000)"
fill="#000000" stroke="none">
<path d="M13021 33259 c-722 -96 -1386 -433 -1900 -965 -491 -507 -803 -1131
-921 -1840 -36 -218 -40 -316 -40 -1000 l0 -674 10320 0 10320 0 0 668 c0 520
-3 698 -15 807 -46 430 -159 815 -352 1200 -170 338 -373 617 -642 885 -531
528 -1203 849 -1943 929 -67 8 -2354 11 -7390 10 -7108 -1 -7297 -1 -7437 -20z"/>
<path d="M10160 25440 l0 -2130 10320 0 10320 0 0 2130 0 2130 -10320 0
-10320 0 0 -2130z"/>
<path d="M10160 19975 l0 -2125 10320 0 10320 0 0 2125 0 2125 -10320 0
-10320 0 0 -2125z"/>
<path d="M10160 15985 c0 -541 3 -704 15 -818 120 -1096 760 -2076 1702 -2603
342 -191 682 -308 1098 -376 l140 -23 4563 -2 4562 -3 0 -2241 c0 -1451 3
-2239 10 -2237 8 2 1579 1629 4033 4173 l289 300 636 6 c687 6 715 8 997 69
724 158 1390 580 1864 1182 326 414 560 921 666 1445 58 285 58 292 62 1076
l4 727 -10320 0 -10321 0 0 -675z"/>
</g>
</svg>
