<?xml version="1.0" standalone="no"?>
<!DOCTYPE svg PUBLIC "-//W3C//DTD SVG 20010904//EN"
 "http://www.w3.org/TR/2001/REC-SVG-20010904/DTD/svg10.dtd">
<svg version="1.0" xmlns="http://www.w3.org/2000/svg"
 width="512.000000pt" height="512.000000pt" viewBox="0 0 512.000000 512.000000"
 preserveAspectRatio="xMidYMid meet">
<metadata>
Created by potrace 1.11, written by Peter Selinger 2001-2013
</metadata>
<g transform="translate(0.000000,512.000000) scale(0.100000,-0.100000)"
fill="#000000" stroke="none">
<path d="M728 5101 c-191 -62 -300 -267 -242 -461 16 -54 61 -129 834 -1395
222 -363 405 -668 408 -677 2 -11 -139 -251 -364 -620 -818 -1341 -862 -1415
-878 -1468 -58 -195 46 -393 241 -459 62 -21 63 -21 1832 -21 1704 0 1771 1
1830 19 216 67 321 307 224 512 -45 97 -120 163 -228 203 -21 8 -448 12 -1451
16 l-1421 5 502 824 c519 849 535 879 535 981 0 102 -16 132 -535 981 l-502
824 1421 5 c1003 4 1430 8 1451 16 108 40 183 106 228 203 96 205 -4 437 -220
510 l-62 21 -1773 -1 c-1687 0 -1776 -1 -1830 -18z"/>
</g>
</svg>
